<?xml version="1.0" standalone="no"?>
<!DOCTYPE svg PUBLIC "-//W3C//DTD SVG 20010904//EN"
 "http://www.w3.org/TR/2001/REC-SVG-20010904/DTD/svg10.dtd">
<svg version="1.0" xmlns="http://www.w3.org/2000/svg"
 width="1664.000000pt" height="1032.000000pt" viewBox="0 0 1664.000000 1032.000000"
 preserveAspectRatio="xMidYMid meet">

<g transform="translate(0.000000,1032.000000) scale(0.100000,-0.100000)"
fill="#000000" stroke="none">
<path d="M5735 10304 c-903 -69 -1444 -535 -1615 -1389 -51 -252 -50 -209 -50
-2709 0 -2466 0 -2431 45 -2676 127 -680 509 -1138 1101 -1318 226 -69 416
-95 694 -95 299 0 503 30 740 109 562 188 934 645 1055 1299 40 217 45 318 45
1008 l0 667 -577 0 c-318 0 -583 -4 -590 -8 -9 -6 -13 -176 -15 -712 -4 -693
-4 -706 -26 -785 -83 -301 -276 -445 -597 -445 -319 0 -510 142 -598 440 l-22
75 -3 2390 c-2 1739 0 2412 8 2470 34 237 147 410 320 489 93 42 165 56 295
56 280 0 464 -112 558 -340 60 -147 60 -146 64 -757 l4 -563 590 0 589 0 0
523 c0 635 -13 779 -90 1057 -86 307 -215 535 -420 741 -249 252 -562 398
-980 455 -104 14 -429 25 -525 18z"/>
<path d="M10125 10304 c-171 -16 -264 -29 -355 -50 -383 -85 -685 -260 -895
-519 -233 -288 -352 -602 -407 -1070 -10 -87 -13 -608 -13 -2450 0 -2475 -1
-2425 46 -2680 121 -659 482 -1111 1041 -1303 138 -48 306 -86 453 -103 139
-16 480 -16 605 0 482 61 858 246 1106 543 249 299 384 666 424 1151 5 71 10
408 10 753 l0 624 -590 0 -590 0 0 -648 c0 -379 -4 -683 -10 -732 -30 -246
-136 -422 -305 -506 -90 -44 -185 -64 -313 -64 -196 0 -333 49 -443 159 -103
103 -156 230 -179 426 -14 123 -14 4615 0 4740 37 322 187 520 441 580 95 22
277 20 373 -5 218 -55 352 -206 413 -464 14 -61 17 -153 20 -623 l4 -553 590
0 589 0 0 479 c0 264 -5 538 -10 608 -81 987 -587 1565 -1480 1688 -103 15
-446 27 -525 19z"/>
<path d="M14550 10304 c-252 -22 -423 -55 -596 -115 -579 -199 -947 -652
-1074 -1319 -51 -267 -50 -211 -50 -2655 0 -1936 2 -2301 15 -2418 34 -323 98
-554 221 -798 84 -168 172 -286 312 -421 255 -244 577 -386 1012 -445 140 -19
502 -21 645 -4 444 53 803 210 1061 466 292 289 450 652 516 1185 20 158 19
4692 -1 4865 -74 654 -336 1118 -786 1395 -197 121 -458 208 -740 246 -108 14
-446 26 -535 18z m362 -1149 c170 -36 305 -143 379 -300 23 -48 51 -128 62
-179 l21 -91 4 -2310 c2 -1660 0 -2338 -8 -2409 -36 -316 -163 -503 -396 -582
-64 -22 -103 -28 -205 -32 -218 -8 -363 36 -482 148 -106 99 -164 224 -192
408 -22 145 -22 4659 0 4804 45 298 185 474 427 538 91 24 291 26 390 5z"/>
<path d="M10 6215 l0 -3985 1710 0 1710 0 0 565 0 565 -1085 0 -1085 0 0 1225
0 1225 860 0 860 0 0 570 0 570 -860 0 -860 0 0 1055 0 1055 1083 2 1082 3 3
545 c1 300 0 555 -3 568 l-5 22 -1705 0 -1705 0 0 -3985z"/>
<path d="M315 1869 c16 -7 13 -8 -15 -5 -37 4 -113 -21 -105 -34 3 -4 -3 -7
-11 -6 -9 0 -25 -14 -35 -32 -18 -31 -18 -33 -1 -38 9 -3 28 -10 42 -16 24
-10 24 -11 5 -19 -33 -13 -45 -10 -38 9 3 9 3 14 -2 10 -4 -4 -14 0 -22 8 -12
12 -13 18 -3 29 7 8 9 15 4 15 -16 0 -65 -70 -58 -82 4 -6 3 -8 -3 -5 -14 9
-42 -57 -53 -128 -13 -82 -13 -1182 0 -1264 6 -35 20 -82 31 -105 26 -50 88
-117 102 -109 6 3 7 1 3 -5 -9 -14 48 -44 60 -32 6 6 15 5 24 -1 13 -9 12 -10
-3 -5 -31 10 -18 -12 16 -25 25 -11 154 -14 597 -17 311 -2 584 0 608 3 46 7
58 25 16 25 -16 0 -23 -4 -18 -12 4 -7 3 -8 -4 -4 -18 11 -15 15 14 26 21 8
29 7 39 -7 11 -14 16 -15 44 -3 17 7 34 17 37 22 4 6 -3 5 -14 -1 -12 -6 -23
-7 -26 -3 -3 5 -24 7 -47 6 -24 -1 -37 1 -29 6 7 4 40 7 73 5 52 -2 66 1 93
22 18 13 31 30 28 38 -3 7 0 16 7 21 8 5 10 3 4 -7 -7 -11 -6 -12 6 -2 20 16
57 92 65 134 l7 34 -22 -20 c-16 -13 -20 -26 -16 -42 3 -13 1 -23 -5 -23 -6 0
-8 -6 -4 -12 6 -10 3 -9 -8 0 -16 12 -15 16 3 48 22 39 17 63 -9 42 -9 -8 -13
-8 -9 -2 4 7 0 14 -8 18 -15 5 -22 46 -8 46 3 0 18 -14 32 -31 19 -22 31 -28
44 -23 17 6 18 40 15 649 -2 493 -6 645 -15 657 -7 8 -10 17 -7 20 2 3 -3 22
-13 42 -17 37 -40 44 -36 10 1 -10 0 -13 -3 -6 -3 6 -12 12 -19 12 -14 0 -29
29 -20 38 3 3 11 -3 19 -13 10 -14 15 -15 21 -6 18 30 -83 115 -173 144 -45
15 -118 17 -634 16 -371 0 -576 -4 -563 -10z m1133 -13 c-11 -12 -95 -14 -485
-15 -260 -1 -473 2 -473 6 0 5 201 8 448 8 246 -1 461 2 477 6 45 10 47 10 33
-5z m-1160 -20 c3 -12 -1 -17 -10 -14 -7 3 -15 13 -16 22 -3 12 1 17 10 14 7
-3 15 -13 16 -22z m112 15 c0 -4 -11 -6 -25 -3 -14 2 -25 6 -25 8 0 2 11 4 25
4 14 0 25 -4 25 -9z m1075 -1 c-3 -5 -12 -10 -18 -10 -7 0 -6 4 3 10 19 12 23
12 15 0z m69 -25 c10 -15 12 -25 6 -25 -6 0 -9 -4 -6 -9 3 -5 0 -11 -7 -14 -8
-3 -14 1 -14 9 0 8 4 14 9 14 4 0 8 5 8 10 0 6 -9 10 -20 10 -11 0 -20 7 -20
15 0 23 26 18 44 -10z m-1311 -12 c-3 -9 3 -16 15 -20 13 -3 19 -10 15 -19 -6
-17 -35 -19 -31 -1 1 6 -3 21 -9 33 -10 16 -9 21 2 21 7 0 11 -7 8 -14z m1352
-1 c-3 -3 -11 0 -18 7 -9 10 -8 11 6 5 10 -3 15 -9 12 -12z m-1393 -16 c-4 -6
-7 -14 -7 -18 0 -3 -4 -10 -9 -15 -5 -5 -6 -3 -2 5 4 6 3 12 -3 12 -6 0 -8 6
-5 13 3 8 11 14 19 14 8 0 11 -5 7 -11z m1388 -6 c-8 -5 -11 -13 -6 -17 4 -4
13 0 21 10 11 16 13 16 19 2 3 -9 11 -13 17 -9 8 4 9 3 5 -5 -4 -6 -12 -9 -17
-6 -5 4 -9 -1 -9 -9 0 -9 -7 -16 -16 -16 -13 0 -14 3 -5 14 9 11 6 13 -19 10
-28 -3 -29 -3 -12 16 9 11 21 20 27 20 5 0 3 -4 -5 -10z m-1365 -9 c3 -5 2
-12 -3 -15 -5 -3 -9 1 -9 9 0 17 3 19 12 6z m-85 -49 c0 -4 -9 -8 -19 -8 -11
0 -17 4 -15 8 3 4 12 8 20 8 8 0 14 -4 14 -8z m140 -22 c-20 -13 -50 -13 -50
0 0 6 15 10 33 10 24 0 28 -3 17 -10z m-129 -10 c14 0 11 -18 -8 -40 -23 -26
-30 -25 -35 4 -4 17 -1 23 9 19 13 -5 19 12 6 20 -5 2 -2 2 5 0 8 -1 18 -3 23
-3z m179 -10 c0 -5 -4 -10 -10 -10 -5 0 -10 5 -10 10 0 6 5 10 10 10 6 0 10
-4 10 -10z m1387 -12 c-3 -8 -6 -5 -6 6 -1 11 2 17 5 13 3 -3 4 -12 1 -19z
m-100 -45 c-3 -10 -5 -4 -5 12 0 17 2 24 5 18 2 -7 2 -21 0 -30z m77 11 c-5
-21 -4 -25 6 -19 10 6 12 4 7 -9 -4 -10 -7 -23 -8 -29 0 -7 -7 5 -16 27 -14
32 -14 39 -2 47 20 12 20 12 13 -17z m36 6 c0 -5 -5 -10 -11 -10 -5 0 -7 5 -4
10 3 6 8 10 11 10 2 0 4 -4 4 -10z m-1633 -30 c15 0 9 -15 -5 -15 -4 0 -14 -4
-22 -9 -8 -5 -12 -6 -8 -1 4 4 2 15 -5 23 -10 13 -9 15 6 9 10 -4 26 -7 34 -7z
m1652 -60 c1 -13 0 -13 -9 0 -5 8 -9 26 -9 40 l1 25 8 -25 c4 -14 8 -32 9 -40z
m-1662 8 c-3 -8 -6 -5 -6 6 -1 11 2 17 5 13 3 -3 4 -12 1 -19z m54 -51 c-16
-16 -26 20 -10 40 13 15 14 14 17 -7 2 -12 -1 -27 -7 -33z m1569 10 c0 -5 -4
-5 -10 -2 -5 3 -10 14 -10 23 0 15 2 15 10 2 5 -8 10 -19 10 -23z m-40 3 c0
-5 -4 -10 -10 -10 -5 0 -10 5 -10 10 0 6 5 10 10 10 6 0 10 -4 10 -10z m-1385
-33 c6 -5 3 -7 -7 -3 -10 3 -18 0 -18 -6 0 -6 -3 -9 -6 -5 -4 3 -4 14 0 23 4
9 10 13 14 8 4 -5 12 -13 17 -17z m40 2 c-10 -15 -25 -10 -19 6 4 8 10 12 15
9 5 -3 7 -10 4 -15z m183 -4 c-3 -3 -9 2 -12 12 -6 14 -5 15 5 6 7 -7 10 -15
7 -18z m55 10 c-3 -8 4 -11 20 -8 25 5 43 -18 31 -39 -4 -6 0 -14 7 -20 11 -7
9 -8 -6 -6 -12 2 -22 13 -25 28 -3 14 -11 26 -18 26 -6 1 -21 2 -32 3 -11 0
-20 5 -20 11 0 5 7 6 17 3 10 -4 14 -2 10 4 -3 5 0 10 7 10 8 0 12 -6 9 -12z
m267 11 c0 -3 -4 -8 -10 -11 -5 -3 -10 -1 -10 4 0 6 5 11 10 11 6 0 10 -2 10
-4z m79 -50 c1 -16 -1 -16 -23 5 -22 21 -23 24 -8 35 14 10 18 9 24 -4 4 -9 7
-25 7 -36z m64 29 c-6 -16 -16 -19 -26 -8 -9 8 13 34 24 28 4 -3 6 -12 2 -20z
m177 -7 c0 -5 -4 -8 -10 -8 -5 0 -10 10 -10 23 0 18 2 19 10 7 5 -8 10 -18 10
-22z m80 22 c0 -5 -5 -10 -11 -10 -5 0 -7 5 -4 10 3 6 8 10 11 10 2 0 4 -4 4
-10z m23 -5 c-3 -9 -8 -14 -10 -11 -3 3 -2 9 2 15 9 16 15 13 8 -4z m322 3
c-11 -6 -22 -14 -25 -17 -3 -3 -12 -7 -20 -9 -11 -3 -9 2 5 17 11 11 29 20 40
20 l20 0 -20 -11z m-1473 -1109 c7 -5 9 -11 5 -16 -23 -23 -27 58 -24 577 l2
555 2 -554 c3 -422 6 -557 15 -562z m128 1077 c-1 -21 -1 -21 -15 -2 -19 25
-19 37 0 30 8 -4 15 -16 15 -28z m-40 -17 c0 -5 -4 -9 -10 -9 -5 0 -10 7 -10
16 0 8 5 12 10 9 6 -3 10 -10 10 -16z m640 6 c0 -8 -7 -15 -15 -15 -9 0 -12 6
-9 15 4 8 10 15 15 15 5 0 9 -7 9 -15z m370 6 c0 -6 -5 -13 -10 -16 -6 -4 -7
-11 -4 -17 4 -6 2 -8 -4 -4 -6 4 -12 -4 -14 -21 -3 -30 -38 -47 -38 -19 0 9 5
15 12 14 7 -2 17 14 22 35 5 20 15 37 23 37 7 0 13 -4 13 -9z m-981 -57 c3
-16 1 -17 -13 -5 -19 16 -21 34 -3 29 6 -3 14 -13 16 -24z m1391 16 c0 -5 -4
-10 -10 -10 -5 0 -10 5 -10 10 0 6 5 10 10 10 6 0 10 -4 10 -10z m-1003 -32
c-3 -8 -6 -5 -6 6 -1 11 2 17 5 13 3 -3 4 -12 1 -19z m25 -10 c-8 -8 -9 -4 -5
13 4 13 8 18 11 10 2 -7 -1 -18 -6 -23z m951 26 c3 -4 -1 -13 -9 -21 -17 -18
-29 -11 -21 12 7 16 19 20 30 9z m-989 -272 c43 -147 82 -273 85 -280 4 -7 53
102 111 248 57 143 106 260 109 260 3 0 51 -114 105 -253 54 -138 102 -255
105 -259 5 -6 64 183 159 505 l14 47 79 0 c43 0 79 -2 79 -5 0 -4 -78 -252
-241 -768 -28 -87 -55 -157 -60 -155 -6 2 -61 124 -124 271 -62 148 -115 270
-117 272 -2 2 -55 -120 -118 -271 -63 -151 -119 -273 -125 -271 -5 2 -75 211
-156 465 l-146 462 81 0 81 0 79 -268z m426 259 c0 -5 -5 -11 -12 -13 -6 -2
-8 -10 -4 -17 6 -9 11 -9 22 0 8 6 14 8 15 3 7 -62 6 -114 -1 -114 -5 0 -6 7
-3 17 4 11 3 14 -5 9 -9 -5 -9 0 -2 19 13 35 13 40 -3 26 -8 -6 -17 -8 -20 -4
-4 3 1 12 11 20 9 8 12 12 5 9 -6 -4 -18 1 -27 9 -13 13 -13 19 -3 30 14 16
27 19 27 6z m-747 -30 c3 -14 0 -17 -14 -14 -19 5 -25 24 -13 36 10 9 21 0 27
-22z m-63 -1 c0 -5 -4 -10 -10 -10 -5 0 -10 5 -10 10 0 6 5 10 10 10 6 0 10
-4 10 -10z m449 -35 c0 -5 -4 -3 -10 5 -8 11 -9 8 -4 -15 l6 -30 -17 24 c-13
18 -14 26 -6 29 7 2 12 11 13 20 0 14 2 13 9 -3 5 -11 9 -24 9 -30z m43 3 c-7
-7 -12 -8 -12 -2 0 14 12 26 19 19 2 -3 -1 -11 -7 -17z m55 -20 c-2 -7 1 -3 7
9 10 23 36 39 36 23 0 -6 -4 -10 -10 -10 -5 0 -10 -8 -10 -19 0 -10 -6 -24
-14 -31 -8 -6 -13 -17 -10 -24 3 -7 -1 -13 -8 -13 -9 0 -13 16 -13 52 0 41 3
49 12 39 7 -7 12 -18 10 -26z m373 32 c0 -5 -5 -10 -11 -10 -5 0 -7 5 -4 10 3
6 8 10 11 10 2 0 4 -4 4 -10z m44 -5 c-4 -8 -8 -15 -10 -15 -2 0 -4 7 -4 15 0
8 4 15 10 15 5 0 7 -7 4 -15z m-984 -20 c0 -8 -4 -17 -10 -20 -6 -4 -10 5 -10
20 0 15 4 24 10 20 6 -3 10 -12 10 -20z m40 -2 c0 -22 2 -25 10 -13 5 8 10 11
10 5 0 -5 5 -3 11 5 9 12 9 11 4 -5 -4 -11 -7 -28 -7 -37 1 -30 -17 -20 -33
18 -18 43 -19 54 -5 54 6 0 10 -12 10 -27z m1277 -10 c-3 -10 -5 -4 -5 12 0
17 2 24 5 18 2 -7 2 -21 0 -30z m-430 -74 c-11 -14 -17 -17 -22 -9 -4 7 -3 15
3 19 6 3 10 20 10 37 -2 51 17 66 20 17 2 -26 -3 -51 -11 -64z m-757 -11 c0
-5 -7 -3 -15 6 -8 8 -15 27 -15 43 l1 28 14 -34 c8 -18 15 -38 15 -43z m832
40 c-7 -7 -12 -25 -12 -41 0 -16 -4 -26 -10 -22 -5 3 -10 14 -10 24 0 18 32
63 39 55 3 -2 -1 -10 -7 -16z m376 -17 c2 -22 0 -31 -7 -26 -6 3 -11 -2 -12
-12 0 -10 -6 0 -13 22 -15 46 -13 54 12 51 11 -2 18 -14 20 -35z m-820 -36
c-12 -12 -38 9 -38 29 0 37 14 40 29 7 8 -17 12 -33 9 -36z m782 5 c0 -11 -2
-20 -4 -20 -2 0 -6 9 -9 20 -3 11 -1 20 4 20 5 0 9 -9 9 -20z m112 -2 c-7 -7
-12 -8 -12 -2 0 14 12 26 19 19 2 -3 -1 -11 -7 -17z m-492 -41 c-1 -27 -2 -29
-11 -14 -6 9 -14 15 -20 12 -5 -4 -4 5 2 19 15 32 29 24 29 -17z m-417 7 c-6
-17 13 -19 21 -1 3 6 4 3 3 -8 -2 -11 -9 -19 -16 -17 -8 2 -10 -4 -6 -17 3
-11 0 -23 -6 -27 -8 -4 -9 -3 -5 4 4 6 0 26 -7 45 -13 30 -13 33 4 34 12 1 16
-3 12 -13z m407 -54 c0 -5 -2 -10 -4 -10 -3 0 -8 5 -11 10 -3 6 -1 10 4 10 6
0 11 -4 11 -10z m350 1 c0 -6 -4 -13 -10 -16 -5 -3 -10 -13 -10 -21 0 -8 3
-13 8 -11 4 3 7 -5 7 -18 0 -12 -5 -21 -11 -18 -14 5 -16 60 -3 69 5 3 7 10 4
15 -4 5 -1 9 4 9 6 0 11 -4 11 -9z m-1102 -20 c-7 -9 -14 -18 -15 -20 -2 -2
-3 5 -3 16 0 11 7 20 15 20 12 0 12 -3 3 -16z m3 -45 c-14 -36 -22 -33 -9 5 6
16 12 28 14 26 3 -2 0 -16 -5 -31z m19 -22 c0 -14 -4 -23 -9 -20 -5 3 -7 15
-4 26 7 28 13 25 13 -6z m24 -20 c3 -8 2 -12 -4 -9 -6 3 -10 10 -10 16 0 14 7
11 14 -7z m1026 0 c0 -8 -5 -12 -10 -9 -6 4 -8 11 -5 16 9 14 15 11 15 -7z
m17 -36 c-3 -7 -5 -2 -5 12 0 14 2 19 5 13 2 -7 2 -19 0 -25z m-1073 -5 c6
-14 9 -15 15 -4 6 9 11 10 15 2 4 -6 2 -11 -4 -11 -6 0 -8 -4 -5 -10 3 -5 2
-10 -4 -10 -12 0 -41 28 -41 41 0 16 18 10 24 -8z m1050 -8 c3 -8 1 -15 -3
-15 -5 0 -11 7 -15 15 -3 8 -1 15 3 15 5 0 11 -7 15 -15z m-21 -54 c4 -29 2
-40 -4 -30 -8 13 -14 88 -5 78 2 -2 6 -24 9 -48z m53 -38 c-11 -11 -19 6 -11
24 8 17 8 17 12 0 3 -10 2 -21 -1 -24z m-1050 3 c19 -20 18 -33 -5 -39 -16 -4
-19 0 -19 24 1 33 4 35 24 15z m997 -73 c-3 -20 -11 -33 -20 -33 -15 0 -10 33
10 58 14 17 15 12 10 -25z m-993 -45 c0 -7 -5 -6 -13 1 -8 6 -17 8 -20 4 -9
-8 -9 5 -1 35 l7 23 13 -27 c8 -14 14 -31 14 -36z m60 39 c0 -7 -7 -20 -15
-31 -13 -17 -14 -16 -10 10 2 16 4 33 4 37 1 13 21 -3 21 -16z m900 13 c0 -5
-4 -10 -10 -10 -5 0 -10 5 -10 10 0 6 5 10 10 10 6 0 10 -4 10 -10z m-456 -16
c3 -8 2 -12 -4 -9 -6 3 -10 10 -10 16 0 14 7 11 14 -7z m19 -54 c11 -18 14
-31 7 -35 -5 -3 -10 0 -10 8 0 8 -9 22 -20 32 -23 20 -27 37 -7 29 7 -2 21
-18 30 -34z m527 14 c0 -14 -4 -23 -10 -19 -5 3 -10 15 -10 26 0 10 5 19 10
19 6 0 10 -12 10 -26z m-570 -8 c0 -3 -4 -8 -10 -11 -5 -3 -10 -1 -10 4 0 6 5
11 10 11 6 0 10 -2 10 -4z m-406 -21 c3 -8 1 -15 -4 -15 -6 0 -10 7 -10 15 0
8 2 15 4 15 2 0 6 -7 10 -15z m892 -12 c-10 -10 -19 5 -10 18 6 11 8 11 12 0
2 -7 1 -15 -2 -18z m-476 13 c0 -2 -8 -10 -17 -17 -16 -13 -17 -12 -4 4 13 16
21 21 21 13z m18 -51 c-1 -23 -5 -32 -11 -26 -9 9 -2 61 8 61 2 0 4 -16 3 -35z
m-48 -15 c5 0 10 6 13 13 2 6 4 0 4 -16 0 -15 -3 -30 -8 -33 -5 -3 -9 2 -9 11
0 9 -4 13 -10 10 -6 -4 -10 5 -9 22 1 17 3 21 6 11 2 -10 8 -18 13 -18z m127
-100 c2 -3 2 9 -1 25 -6 27 -5 28 4 7 8 -18 6 -29 -6 -45 -11 -15 -14 -17 -12
-6 2 9 -7 25 -19 35 -12 11 -24 30 -28 44 -6 20 -2 18 25 -15 17 -22 34 -42
37 -45z m300 48 c-3 -8 -6 -5 -6 6 -1 11 2 17 5 13 3 -3 4 -12 1 -19z m-447
-13 c0 -9 -8 -19 -17 -22 -10 -4 -22 -11 -26 -17 -5 -6 -5 0 -1 14 10 37 44
56 44 25z m70 -21 c0 -30 -18 -31 -29 -1 -10 27 -5 38 14 30 8 -3 15 -16 15
-29z m-380 -48 c-6 -20 -18 -36 -26 -36 -19 0 -18 6 6 30 11 11 20 28 20 37 0
9 3 14 6 10 3 -3 1 -22 -6 -41z m760 25 c0 -3 -4 -12 -9 -19 -6 -11 -9 -9 -13
5 -3 12 0 20 8 20 8 0 14 -3 14 -6z m-486 -27 c6 -14 -9 -54 -20 -54 -2 0 0 9
6 21 9 15 8 24 -1 35 -7 8 -7 14 -1 14 5 0 13 -7 16 -16z m209 -12 c-2 -10
-13 -18 -24 -19 -26 -2 -24 10 4 23 12 7 23 12 24 13 0 0 -1 -7 -4 -17z m242
-2 c3 -5 1 -10 -4 -10 -6 0 -11 5 -11 10 0 6 2 10 4 10 3 0 8 -4 11 -10z
m-485 -20 c-6 -11 -13 -20 -16 -20 -2 0 0 9 6 20 6 11 13 20 16 20 2 0 0 -9
-6 -20z m-239 -13 c-10 -9 -11 -8 -5 6 3 10 9 15 12 12 3 -3 0 -11 -7 -18z
m764 -17 c0 -7 -9 -19 -20 -26 -19 -12 -21 -11 -22 8 -2 23 14 40 32 35 6 -2
10 -9 10 -17z m-785 -10 c0 -5 -4 -10 -10 -10 -5 0 -10 5 -10 10 0 6 5 10 10
10 6 0 10 -4 10 -10z m260 -6 c0 -8 -4 -12 -10 -9 -5 3 -10 10 -10 16 0 5 5 9
10 9 6 0 10 -7 10 -16z m240 -4 c0 -5 -4 -10 -10 -10 -5 0 -10 5 -10 10 0 6 5
10 10 10 6 0 10 -4 10 -10z m-484 -47 c-11 -11 -19 6 -11 24 8 17 8 17 12 0 3
-10 2 -21 -1 -24z m44 27 c0 -5 -4 -10 -9 -10 -6 0 -13 5 -16 10 -3 6 1 10 9
10 9 0 16 -4 16 -10z m491 -23 c-10 -9 -11 -8 -5 6 3 10 9 15 12 12 3 -3 0
-11 -7 -18z m189 8 c11 -13 8 -15 -15 -15 -23 0 -26 2 -15 15 7 8 14 15 15 15
1 0 8 -7 15 -15z m-490 -5 c0 -5 -4 -10 -10 -10 -5 0 -10 5 -10 10 0 6 5 10
10 10 6 0 10 -4 10 -10z m50 0 c0 -5 -4 -10 -10 -10 -5 0 -10 5 -10 10 0 6 5
10 10 10 6 0 10 -4 10 -10z m200 0 c0 -5 -4 -10 -10 -10 -5 0 -10 5 -10 10 0
6 5 10 10 10 6 0 10 -4 10 -10z m-950 -45 c0 -5 -5 -3 -10 5 -5 8 -10 20 -10
25 0 6 5 3 10 -5 5 -8 10 -19 10 -25z m1690 25 c0 -5 -2 -10 -4 -10 -3 0 -8 5
-11 10 -3 6 -1 10 4 10 6 0 11 -4 11 -10z m-1665 -20 c3 -5 1 -10 -4 -10 -6 0
-11 5 -11 10 0 6 2 10 4 10 3 0 8 -4 11 -10z m-26 -44 c8 -10 8 -16 -3 -25
-11 -10 -14 -7 -12 14 1 29 0 29 15 11z m51 -25 c0 -11 9 -21 21 -24 24 -6 21
-30 -4 -35 -12 -2 -17 3 -17 17 0 12 -4 21 -10 21 -5 0 -10 9 -10 20 0 11 5
20 10 20 6 0 10 -8 10 -19z m-20 -66 c6 -7 1 -11 -11 -12 -15 -1 -19 3 -15 13
3 9 7 25 7 37 2 19 2 19 6 -3 3 -14 9 -30 13 -35z m1547 33 c-3 -8 -6 -5 -6 6
-1 11 2 17 5 13 3 -3 4 -12 1 -19z m58 -8 c-3 -5 -11 -10 -16 -10 -6 0 -7 5
-4 10 3 6 11 10 16 10 6 0 7 -4 4 -10z m-37 -33 c4 -19 -6 -21 -27 -8 -16 10
-5 34 12 28 7 -2 13 -11 15 -20z m-1488 3 c0 -5 -4 -10 -10 -10 -5 0 -10 5
-10 10 0 6 5 10 10 10 6 0 10 -4 10 -10z m1521 -46 c11 -13 11 -15 -2 -14 -26
4 -40 0 -34 -10 3 -5 1 -10 -4 -10 -12 0 -14 11 -5 34 8 20 28 20 45 0z
m-1561 -19 c0 -7 8 -18 18 -24 15 -9 14 -10 -5 -8 -13 1 -23 4 -23 8 0 4 -3
14 -6 23 -3 9 -1 16 5 16 6 0 11 -7 11 -15z m35 -4 c-3 -6 -11 -11 -16 -11 -5
0 -4 6 3 14 14 16 24 13 13 -3z m1490 -23 c5 4 0 -5 -11 -20 -21 -31 -31 -35
-31 -14 0 8 3 15 6 14 19 -2 22 4 10 20 -12 15 -12 16 2 5 9 -7 20 -9 24 -5z
m-1335 -72 c0 -9 -8 -12 -25 -8 -28 5 -24 22 6 22 10 0 19 -6 19 -14z m598
-15 c305 0 480 4 467 10 -19 8 -19 9 -1 6 11 -1 21 -8 24 -15 3 -9 -101 -12
-497 -12 -467 0 -500 1 -494 17 4 11 8 12 11 5 3 -9 120 -12 490 -11z m-607
-19 c-7 -2 -18 1 -23 6 -8 8 -4 9 13 5 13 -4 18 -8 10 -11z"/>
<path d="M7680 1858 c-78 -30 -169 -123 -199 -202 -21 -58 -22 -60 -19 -725
l3 -666 29 -58 c36 -71 99 -130 174 -165 l57 -27 605 0 605 0 63 29 c79 37
152 114 181 192 21 55 21 67 19 722 l-3 667 -26 55 c-33 70 -95 132 -167 167
l-57 28 -605 2 c-595 2 -606 2 -660 -19z m432 -667 l3 -218 155 216 156 216
83 3 c67 2 82 0 78 -11 -4 -11 -71 -105 -283 -398 l-34 -46 153 -199 c84 -110
165 -216 181 -236 l28 -38 -90 0 -90 0 -169 221 -168 221 -3 -221 -2 -221 -75
0 -75 0 0 465 0 465 75 0 75 0 2 -219z"/>
<path d="M10192 1867 c-18 -7 -30 -16 -25 -20 4 -5 0 -5 -10 -1 -10 3 -17 1
-17 -5 0 -6 5 -11 12 -11 6 0 3 -6 -7 -14 -18 -13 -17 -13 9 -13 15 0 30 6 33
13 3 8 11 14 19 14 29 0 10 -35 -31 -56 -32 -16 -49 -18 -40 -4 4 6 10 8 14 6
4 -3 8 1 8 8 0 11 -4 12 -19 3 -10 -7 -17 -21 -16 -32 2 -15 -2 -19 -17 -17
-27 5 -37 23 -21 42 7 8 16 22 19 30 4 12 6 12 6 -2 1 -9 -4 -20 -9 -23 -6 -4
-8 -11 -4 -16 8 -14 33 22 27 38 -3 7 0 13 7 13 6 0 8 5 5 10 -4 7 -13 6 -26
-1 -33 -17 -99 -80 -94 -89 3 -4 -2 -11 -11 -14 -8 -3 -12 -11 -8 -17 4 -8 9
-7 16 2 8 11 9 11 5 -1 -2 -8 -11 -14 -21 -12 -14 3 -21 -9 -17 -30 0 -5 -3
-8 -8 -8 -26 0 -31 -122 -31 -730 0 -437 3 -630 11 -630 5 0 7 5 3 12 -4 7 -3
8 5 4 9 -6 9 -11 0 -22 -9 -11 -8 -24 6 -59 10 -27 21 -42 27 -39 7 4 8 2 4
-5 -9 -14 50 -91 69 -91 7 0 16 -7 19 -16 4 -9 13 -14 22 -10 8 3 12 2 9 -4
-7 -12 32 -33 47 -24 6 4 8 3 5 -3 -11 -18 54 -25 73 -8 9 8 21 15 26 15 5 0
1 -5 -8 -11 -10 -5 -18 -14 -18 -19 0 -14 1105 -13 1170 1 54 12 54 12 41 37
-8 15 -4 17 24 18 19 0 32 -3 29 -8 -3 -5 -10 -6 -15 -3 -12 8 -31 -4 -23 -16
9 -15 83 32 130 84 23 26 52 73 64 103 21 57 23 182 20 1331 0 36 -3 42 -20
40 -11 -1 -22 -9 -26 -19 -3 -10 -11 -15 -20 -11 -8 3 -14 -1 -14 -11 0 -9 -4
-16 -10 -16 -18 0 -11 25 11 38 17 11 18 16 8 28 -10 12 -9 13 4 8 14 -5 13 3
-7 48 l-24 54 22 1 c11 0 15 -1 9 -4 -7 -3 -13 -9 -13 -14 0 -6 5 -7 11 -3 7
4 9 0 5 -12 -3 -11 -1 -26 4 -34 9 -13 11 -13 20 0 13 19 13 33 0 25 -6 -3 -7
1 -4 9 6 16 -76 108 -119 133 -87 51 -47 48 -692 50 -450 1 -608 -1 -633 -10z
m52 -12 c3 -9 0 -15 -8 -15 -7 0 -13 7 -13 15 0 8 4 15 8 15 4 0 9 -7 13 -15z
m61 5 c-19 -8 -19 -9 -1 -9 11 -1 17 -3 14 -6 -3 -4 -18 -3 -34 1 -25 6 -26 8
-9 15 28 11 55 10 30 -1z m980 1 c-3 -6 16 -8 47 -6 33 3 47 1 38 -5 -18 -11
-960 -14 -960 -3 0 5 194 8 431 8 237 0 433 3 435 7 3 5 7 8 10 8 3 0 3 -4 -1
-9z m165 -35 c0 -40 71 -77 83 -43 3 9 9 8 21 -4 15 -14 12 -15 -38 -15 -30 0
-52 4 -50 8 3 4 1 8 -3 8 -5 0 -16 16 -25 35 -13 29 -13 35 -2 35 8 0 14 -10
14 -24z m43 -3 c-19 -7 -15 -21 8 -28 11 -4 18 -9 15 -12 -7 -7 -56 24 -56 35
0 4 10 8 23 9 12 0 16 -1 10 -4z m-1426 -110 c-5 -7 -16 -13 -25 -13 -8 0 -12
3 -9 6 3 4 2 15 -4 25 -7 15 -6 17 6 13 8 -3 12 -10 9 -15 -3 -5 0 -9 6 -9 8
0 9 11 6 33 l-6 32 13 -30 c10 -20 11 -34 4 -42z m1465 12 c3 -14 1 -28 -3
-31 -5 -3 -9 9 -9 25 0 38 6 40 12 6z m-1312 5 c0 -5 -11 -10 -25 -10 -14 0
-25 5 -25 10 0 6 11 10 25 10 14 0 25 -4 25 -10z m-130 -39 c0 -6 -9 -9 -19
-8 -11 0 -17 5 -15 9 7 11 34 10 34 -1z m110 -1 c0 -5 -9 -10 -21 -10 -11 0
-17 5 -14 10 3 6 13 10 21 10 8 0 14 -4 14 -10z m1380 1 c0 -6 -4 -13 -10 -16
-5 -3 -10 -22 -10 -41 0 -21 -4 -33 -10 -29 -14 9 -13 51 2 75 13 21 28 27 28
11z m-1583 -48 c-2 -20 -9 -39 -15 -41 -8 -2 -10 -14 -6 -30 4 -15 4 -24 0
-21 -11 10 -15 69 -5 69 6 0 7 5 4 10 -3 6 -1 10 4 10 6 0 11 9 11 20 0 11 2
20 5 20 3 0 4 -17 2 -37z m63 11 c0 -8 -4 -12 -10 -9 -5 3 -10 10 -10 16 0 5
5 9 10 9 6 0 10 -7 10 -16z m-23 -76 c-3 -7 -5 -2 -5 12 0 14 2 19 5 13 2 -7
2 -19 0 -25z m-19 -595 l-3 -578 -5 570 c-3 314 -4 573 -2 578 2 4 5 7 8 7 2
0 3 -260 2 -577z m1532 552 c0 -8 -7 -15 -15 -15 -26 0 -18 20 13 29 1 1 2 -6
2 -14z m-1588 -565 c-1 -347 1 -570 7 -570 5 0 7 -9 4 -20 -18 -69 -23 51 -23
560 0 481 3 600 14 600 0 0 0 -256 -2 -570z m1698 560 c0 -5 -7 -10 -15 -10
-8 0 -15 5 -15 10 0 6 7 10 15 10 8 0 15 -4 15 -10z m-1002 -40 c-15 -24 -19
-21 -11 8 3 12 9 19 14 16 5 -3 3 -14 -3 -24z m62 21 c0 -5 -9 -7 -20 -4 -11
3 -20 7 -20 9 0 2 9 4 20 4 11 0 20 -4 20 -9z m249 -7 c9 6 37 -11 30 -19 -3
-3 -20 -2 -37 1 -24 5 -28 9 -19 19 7 7 14 9 15 4 2 -5 7 -7 11 -5z m-355 -26
c8 -5 7 -11 -2 -20 -9 -9 -12 -8 -12 5 0 10 -7 20 -16 24 -13 5 -13 7 -2 14 8
5 15 4 17 -4 2 -7 9 -15 15 -19z m293 16 c-3 -3 -12 -4 -19 -1 -8 3 -5 6 6 6
11 1 17 -2 13 -5z m133 -40 c0 -8 -5 -12 -10 -9 -6 4 -8 11 -5 16 9 14 15 11
15 -7z m-58 -46 c-9 -9 -12 -7 -12 12 0 19 3 21 12 12 9 -9 9 -15 0 -24z
m-339 -26 c-3 -12 -9 -22 -14 -22 -14 0 -11 38 4 43 16 6 17 5 10 -21z m247
-437 l0 -465 -75 0 -75 0 0 465 0 465 75 0 75 0 0 -465z m-292 427 c2 -7 -6
-12 -17 -12 -21 0 -27 11 -14 24 9 9 26 2 31 -12z m43 -811 c7 11 9 10 9 -4 0
-14 -6 -18 -27 -15 -14 2 -28 9 -31 16 -3 11 0 12 18 2 18 -10 24 -9 31 1z
m-33 -61 c14 0 14 -1 0 -12 -9 -7 -18 -20 -21 -28 -4 -10 -6 -7 -6 8 -1 12 -5
22 -11 22 -5 0 -10 5 -10 11 0 6 7 8 16 5 9 -3 23 -6 32 -6z m38 -47 c-7 -53
-13 -64 -26 -43 -6 10 -4 20 6 32 10 10 13 25 9 37 -4 13 -2 21 6 21 8 0 10
-13 5 -47z m382 35 c16 -16 15 -28 -3 -28 -8 0 -15 2 -15 4 0 2 -3 11 -6 20
-7 19 7 21 24 4z m-12 -42 c3 -8 4 -22 2 -31 -3 -14 -6 -13 -25 5 -13 11 -23
25 -23 30 0 16 40 12 46 -4z m-959 -113 c1 -66 1 -66 -18 -42 -17 23 -17 36
-2 92 10 37 19 14 20 -50z m1613 58 c0 -5 -7 -11 -15 -15 -9 -3 -15 0 -15 9 0
8 7 15 15 15 8 0 15 -4 15 -9z m-1678 -91 c-9 -12 -18 24 -13 53 l5 32 6 -40
c3 -22 4 -42 2 -45z m1628 46 c0 -8 -4 -17 -9 -21 -12 -7 -24 12 -16 25 9 15
25 12 25 -4z m45 -47 c-2 -17 -9 -37 -15 -44 -7 -8 -9 -18 -6 -23 3 -4 -11 -8
-31 -7 -41 2 -53 17 -53 63 0 47 24 36 28 -12 2 -23 8 -36 15 -33 7 2 11 15 9
28 -3 23 -2 23 13 4 12 -16 14 -17 9 -2 -5 13 -2 16 12 11 15 -4 16 -4 5 4
-12 8 -12 12 0 26 19 20 19 21 14 -15z m-1654 -22 c-8 -8 -11 -7 -11 4 0 20
13 34 18 19 3 -7 -1 -17 -7 -23z m-21 3 c0 -5 -5 -10 -11 -10 -5 0 -7 5 -4 10
3 6 8 10 11 10 2 0 4 -4 4 -10z m90 -40 c0 -11 -7 -20 -15 -20 -17 0 -18 2 -9
24 9 23 24 20 24 -4z m-80 -12 c0 -19 -2 -20 -10 -8 -13 19 -13 30 0 30 6 0
10 -10 10 -22z m62 -65 c6 -16 12 -33 13 -39 4 -16 -19 -13 -35 5 -13 13 -12
14 2 8 12 -4 15 -2 11 8 -3 8 -9 13 -13 10 -5 -3 -6 4 -3 15 7 27 11 25 25 -7z
m1533 3 c-11 -8 -15 -18 -10 -26 5 -8 4 -11 -2 -7 -6 4 -14 0 -17 -9 -4 -9 -9
-14 -13 -11 -3 4 -13 1 -22 -6 -14 -11 -14 -10 -2 5 7 10 17 16 21 13 5 -3 11
4 15 15 8 24 35 53 43 45 3 -3 -3 -11 -13 -19z m-52 -6 c3 -11 1 -18 -3 -15
-5 3 -10 -1 -13 -7 -2 -7 -4 -1 -4 15 -1 31 12 36 20 7z m-1243 -89 c-24 -7
-23 -8 9 -14 24 -5 37 -3 43 5 6 10 8 10 8 1 0 -10 103 -13 463 -16 l462 -2
-477 -3 c-262 -1 -485 -5 -495 -8 -14 -4 -15 -4 -4 4 10 7 3 12 -28 17 -49 8
-56 8 -56 -4 0 -18 -14 -23 -28 -10 -13 12 -13 15 3 24 10 6 43 11 72 11 34 1
44 -1 28 -5z m1131 -7 c12 -7 2 -24 -14 -24 -7 0 -6 4 3 11 12 9 11 10 -6 6
-12 -2 -28 -1 -36 4 -8 5 -26 2 -42 -7 -35 -18 -42 -18 -49 0 -4 9 0 12 13 9
10 -3 27 0 37 5 17 10 76 8 94 -4z"/>
<path d="M11645 1648 c-9 -22 4 -43 17 -30 7 7 7 16 0 29 -10 17 -11 17 -17 1z"/>
<path d="M3225 1471 c-181 -53 -329 -199 -381 -376 -26 -88 -23 -231 5 -315
46 -134 136 -242 260 -311 66 -37 186 -69 260 -69 237 1 466 177 526 405 19
76 19 201 -1 279 -49 191 -221 356 -412 395 -76 16 -188 12 -257 -8z m290 -71
c185 -64 314 -225 332 -416 18 -190 -93 -381 -270 -469 -267 -131 -596 21
-672 310 -63 242 72 487 317 575 75 27 215 27 293 0z"/>
<path d="M3319 1269 c-109 -16 -200 -85 -247 -188 -49 -106 -40 -218 25 -318
61 -93 156 -144 269 -145 134 -1 243 69 303 192 37 78 37 191 0 270 -63 134
-205 210 -350 189z m151 -80 c179 -81 216 -317 69 -442 -171 -147 -432 -26
-433 199 0 112 70 211 177 251 51 19 136 15 187 -8z"/>
<path d="M12852 953 l3 -538 138 -3 137 -3 0 258 0 258 48 -50 c26 -27 139
-146 251 -262 l204 -213 48 0 49 0 0 540 0 540 -140 0 -140 0 -2 -249 -3 -249
-243 254 -243 254 -55 0 -54 0 2 -537z m258 285 c101 -106 235 -246 297 -310
l113 -118 0 300 0 300 75 0 75 0 0 -477 0 -477 -27 27 c-16 15 -149 154 -298
310 l-270 283 -3 -298 -2 -298 -75 0 -75 0 0 475 c0 261 1 475 3 475 2 0 86
-87 187 -192z"/>
<path d="M15642 1474 c-127 -34 -251 -125 -324 -239 -111 -171 -110 -414 2
-582 102 -153 249 -238 430 -250 253 -16 465 137 524 378 16 66 21 191 10 247
l-6 31 -114 3 -114 3 77 114 78 113 -55 49 c-66 59 -166 113 -246 134 -72 19
-191 18 -262 -1z m300 -83 c63 -24 146 -77 161 -102 7 -11 0 -30 -28 -71 l-37
-57 -49 36 c-151 108 -331 96 -447 -31 -65 -71 -86 -125 -86 -221 0 -97 29
-171 94 -233 127 -124 342 -130 455 -13 30 30 65 108 65 143 0 4 -65 8 -145 8
l-145 0 0 70 0 70 220 0 220 0 6 -27 c12 -47 -13 -189 -45 -256 -131 -273
-512 -325 -736 -100 -71 71 -109 136 -130 224 -19 82 -19 150 0 224 43 164
164 294 323 346 79 26 224 21 304 -10z m-51 -211 c24 -13 68 -44 98 -69 l54
-46 -164 -5 -164 -5 -3 -132 -3 -132 142 -3 142 -3 -27 -32 c-76 -91 -270 -88
-370 5 -122 114 -90 342 59 419 74 39 162 40 236 3z"/>
<path d="M5410 948 l0 -533 140 3 140 3 0 175 c0 113 4 173 10 169 5 -3 62
-81 126 -173 64 -92 118 -169 120 -170 2 -3 289 -5 337 -2 5 0 -7 21 -25 48
-19 26 -82 112 -140 192 -57 80 -107 150 -111 156 -3 6 16 34 42 61 64 66 91
138 91 239 0 177 -131 324 -317 354 -32 6 -138 10 -235 10 l-178 0 0 -532z
m482 435 c66 -30 132 -95 159 -156 32 -71 32 -174 0 -235 -26 -51 -95 -120
-127 -128 -13 -3 -24 -9 -24 -13 0 -3 59 -86 130 -184 72 -98 130 -180 130
-183 0 -2 -40 -4 -88 -4 l-88 0 -124 180 -125 180 -57 0 -58 0 0 -180 0 -181
-72 3 -73 3 -3 450 c-1 248 0 456 3 463 4 11 41 13 188 10 160 -3 188 -6 229
-25z"/>
<path d="M5620 1109 l0 -151 98 4 c111 4 160 25 189 81 22 43 20 113 -5 146
-42 58 -76 71 -183 71 l-99 0 0 -151z m185 76 c63 -26 69 -101 11 -136 -19
-12 -49 -19 -78 -19 l-48 0 0 85 0 85 40 0 c22 0 56 -7 75 -15z"/>
</g>
</svg>
